<svg xmlns="http://www.w3.org/2000/svg" version="1.0" width="512.000000pt" height="512.000000pt" viewBox="0 0 512.000000 512.000000" preserveAspectRatio="xMidYMid meet">

<g transform="translate(0.000000,512.000000) scale(0.100000,-0.100000)" fill="#ffffff" stroke="none">
<path d="M292 4825 c-97 -27 -187 -97 -240 -186 -27 -45 -52 -140 -52 -199 0 -58 24 -141 57 -200 16 -27 261 -281 624 -645 l599 -601 0 -482 0 -482 -72 0 c-56 0 -84 -6 -118 -24 -52 -26 -105 -90 -120 -144 -6 -23 -10 -235 -10 -574 l0 -538 -296 0 c-204 0 -310 -4 -338 -12 -55 -16 -138 -99 -154 -154 -7 -23 -12 -89 -12 -148 0 -100 2 -108 25 -131 l24 -25 1665 0 c915 0 1672 3 1681 6 31 12 45 59 45 152 0 156 -43 241 -145 288 l-50 24 -587 0 -588 0 0 553 c0 512 -2 555 -19 592 -19 43 -85 109 -120 120 -20 6 -21 13 -21 117 0 101 1 110 18 103 63 -26 190 -36 241 -20 17 5 24 -2 45 -42 50 -99 164 -180 281 -202 76 -14 836 -15 925 -1 172 28 301 155 331 328 38 213 -117 420 -338 452 -37 5 -119 10 -180 10 l-113 0 0 58 c0 50 4 62 26 83 l26 24 498 5 498 5 44 30 c76 54 108 121 108 228 l0 57 230 0 c249 0 266 3 329 56 42 35 81 116 81 168 0 89 -52 175 -134 219 -41 22 -47 22 -551 25 -347 2 -526 0 -561 -8 -182 -39 -247 -269 -113 -397 62 -59 84 -63 339 -63 l230 0 0 -60 c0 -51 -4 -65 -25 -85 l-24 -25 -463 0 c-274 0 -481 -5 -507 -11 -111 -25 -181 -118 -181 -241 l0 -68 -264 0 -264 0 -25 43 c-14 23 -464 479 -999 1013 -941 939 -975 972 -1033 994 -77 28 -184 35 -253 15z m214 -163 c58 -30 1939 -1916 1959 -1964 17 -43 20 -144 5 -184 l-11 -28 -92 92 c-82 82 -96 92 -128 92 -44 0 -72 -28 -72 -71 0 -25 16 -47 93 -124 l94 -94 -30 -11 c-39 -15 -122 -15 -170 0 -32 10 -212 185 -998 969 -1018 1015 -1006 1002 -1006 1096 0 45 17 115 28 115 4 0 408 -400 897 -890 815 -815 893 -890 922 -890 43 0 73 30 73 73 0 29 -75 107 -890 922 -490 489 -890 893 -890 897 0 14 66 27 121 24 30 -2 73 -13 95 -24z m4440 -1125 c31 -37 31 -81 -1 -112 l-24 -25 -516 0 -516 0 -24 25 c-37 36 -34 86 6 119 l31 27 510 -3 510 -3 24 -28z m-3206 -1043 c-15 -7 -46 -30 -69 -53 -57 -57 -71 -113 -71 -278 l0 -134 -82 3 -83 3 -3 405 -2 405 170 -170 169 -169 -29 -12z m1385 26 l0 -85 -262 -3 c-145 -1 -263 -1 -263 2 0 2 7 23 15 46 8 23 15 59 15 80 0 20 3 40 7 44 4 3 115 5 247 4 l241 -3 0 -85z m490 66 c61 -26 135 -106 135 -146 0 -7 -78 -10 -235 -10 l-235 0 0 91 0 91 148 -4 c108 -4 157 -9 187 -22z m-1718 -248 c22 -21 23 -28 23 -165 l0 -144 -82 3 -83 3 -3 120 c-1 66 0 130 3 142 15 60 97 84 142 41z m1853 -63 c0 -16 -32 -64 -62 -92 -71 -68 -67 -68 -536 -71 -470 -3 -507 0 -575 52 -39 30 -87 89 -87 107 0 5 284 9 630 9 347 0 630 -2 630 -5z m-1693 -417 c22 -21 23 -28 23 -165 l0 -143 -295 0 -296 0 -24 -25 c-28 -27 -30 -42 -14 -78 20 -44 43 -47 344 -47 l285 0 0 -325 0 -325 -485 0 -485 0 0 324 0 324 61 4 c69 5 99 28 99 77 0 48 -32 71 -100 71 l-60 0 0 130 c0 132 11 181 42 193 7 3 208 6 447 6 433 1 435 1 458 -21z m1344 -1268 c28 -16 49 -63 49 -115 l0 -45 -1570 0 -1570 0 0 56 c0 48 4 59 29 85 l29 29 1507 0 c1014 0 1513 -3 1526 -10z" fill="#ffffff"/>
</g>
</svg>