<svg xmlns="http://www.w3.org/2000/svg" version="1.0" width="512.000000pt" height="512.000000pt" viewBox="0 0 512.000000 512.000000" preserveAspectRatio="xMidYMid meet">

<g transform="translate(0.000000,512.000000) scale(0.100000,-0.100000)" fill="#ffffff" stroke="none">
<path d="M1234 5070 c-143 -26 -266 -92 -380 -205 -400 -396 -210 -1064 344 -1205 l42 -11 0 -293 0 -293 -74 -37 c-80 -39 -160 -116 -197 -187 -50 -99 -49 -73 -49 -1276 0 -793 3 -1138 11 -1175 48 -225 274 -379 499 -340 177 30 309 153 355 329 23 88 22 2280 -1 2368 -31 123 -115 225 -231 282 l-73 36 0 293 0 293 43 11 c349 89 578 400 554 751 -13 177 -81 323 -212 454 -139 140 -284 203 -475 210 -58 2 -128 0 -156 -5z m241 -245 c256 -67 415 -329 350 -578 -45 -173 -178 -307 -350 -352 -250 -65 -513 94 -580 350 -89 342 238 669 580 580z m-58 -2000 c60 -18 116 -73 133 -132 8 -27 10 -360 8 -1158 l-3 -1120 -24 -38 c-13 -21 -42 -50 -64 -65 -34 -23 -52 -27 -107 -27 -55 0 -73 4 -107 27 -22 15 -51 44 -64 65 l-24 38 -3 1125 c-3 1257 -7 1176 68 1244 22 20 52 38 67 42 16 3 33 7 38 9 19 6 32 5 82 -10z" fill="#ffffff"/>
<path d="M3234 5069 c-141 -24 -265 -91 -380 -204 -400 -396 -210 -1064 344 -1205 l42 -11 0 -293 0 -293 -74 -37 c-80 -39 -160 -116 -197 -187 -50 -99 -49 -73 -49 -1276 0 -793 3 -1138 11 -1175 48 -225 274 -379 499 -340 177 30 309 153 355 329 23 88 22 2280 -1 2368 -31 123 -115 225 -231 282 l-73 36 0 288 0 288 265 3 265 3 32 33 33 32 3 265 3 264 364 3 365 3 32 33 c28 28 33 39 33 82 0 43 -5 54 -33 82 l-32 33 -365 3 -364 3 -3 264 -3 265 -33 32 -32 33 -363 2 c-199 0 -385 -3 -413 -8z m606 -709 l0 -480 -268 0 c-205 0 -281 3 -325 15 -258 67 -417 329 -352 580 44 169 178 304 348 350 38 10 123 14 325 14 l272 1 0 -480z m-423 -1535 c60 -18 116 -73 133 -132 8 -27 10 -360 8 -1158 l-3 -1120 -24 -38 c-13 -21 -42 -50 -64 -65 -34 -23 -52 -27 -107 -27 -55 0 -73 4 -107 27 -22 15 -51 44 -64 65 l-24 38 -3 1125 c-3 1257 -7 1176 68 1244 22 20 52 38 67 42 16 3 33 7 38 9 19 6 32 5 82 -10z" fill="#ffffff"/>
</g>
</svg>