<svg xmlns="http://www.w3.org/2000/svg" version="1.0" width="512.000000pt" height="512.000000pt" viewBox="0 0 512.000000 512.000000" preserveAspectRatio="xMidYMid meet">

<g transform="translate(0.000000,512.000000) scale(0.100000,-0.100000)" fill="#ffffff" stroke="none">
<path d="M1140 4853 c-19 -2 -72 -10 -117 -19 -268 -48 -452 -141 -629 -318 -379 -379 -497 -1005 -297 -1580 49 -142 117 -279 217 -436 218 -341 313 -596 371 -1000 62 -433 136 -709 248 -923 122 -235 277 -346 466 -335 119 7 212 65 295 181 143 202 245 536 306 1004 12 87 30 191 41 232 20 75 67 181 79 181 13 0 69 -134 84 -200 8 -36 22 -121 31 -190 57 -453 158 -796 291 -997 60 -90 113 -141 189 -181 45 -24 61 -27 150 -27 94 0 105 2 168 33 151 75 272 246 368 520 29 84 34 93 53 87 12 -3 80 -8 152 -12 699 -32 1316 448 1465 1142 25 118 35 333 20 455 -13 100 -39 214 -73 315 -33 97 -134 284 -203 376 -128 171 -323 334 -506 425 l-77 37 -6 72 c-21 229 -129 509 -270 696 -162 214 -371 354 -629 419 -378 95 -770 48 -1124 -135 l-83 -42 -103 52 c-265 133 -602 197 -877 168z m356 -168 c188 -28 408 -108 566 -205 27 -17 52 -30 57 -30 4 0 46 22 92 48 482 277 1082 268 1444 -21 208 -166 363 -451 409 -753 l6 -41 -75 18 c-246 58 -528 45 -771 -36 -591 -197 -984 -739 -984 -1355 0 -175 25 -322 85 -505 4 -11 -9 12 -29 51 -57 113 -122 156 -211 140 -68 -13 -131 -92 -176 -223 -29 -84 -36 -118 -69 -355 -67 -466 -171 -790 -300 -931 -60 -66 -101 -87 -169 -87 -139 0 -265 137 -362 396 -76 200 -103 325 -189 862 -50 314 -165 604 -359 907 -201 314 -286 563 -298 875 -11 281 52 543 180 754 154 254 342 396 618 465 173 43 357 52 535 26z m2419 -1130 c242 -50 449 -157 625 -322 204 -191 339 -445 385 -722 14 -80 16 -137 12 -255 -6 -157 -23 -253 -72 -388 -140 -387 -480 -696 -880 -799 -226 -58 -486 -51 -706 21 -444 146 -784 537 -863 995 -20 116 -20 327 -1 441 67 384 314 721 665 908 108 57 268 111 390 130 117 19 331 15 445 -9z m-1433 -2050 c102 -154 241 -292 401 -398 85 -57 248 -138 330 -163 56 -18 58 -19 53 -47 -11 -56 -90 -241 -129 -301 -83 -130 -173 -196 -268 -196 -67 0 -109 21 -167 85 -132 144 -235 463 -302 935 -27 187 -44 280 -66 347 -3 10 18 -29 48 -87 29 -58 74 -137 100 -175z" fill="#ffffff"/>
<path d="M3240 3010 l0 -280 -280 0 -280 0 0 -425 0 -425 280 0 280 0 0 -280 0 -280 430 0 430 0 0 280 0 280 275 0 275 0 0 425 0 425 -275 0 -275 0 0 280 0 280 -430 0 -430 0 0 -280z m700 -160 l0 -280 275 0 275 0 0 -270 0 -270 -275 0 -275 0 0 -275 0 -275 -270 0 -270 0 0 275 0 275 -280 0 -280 0 0 270 0 270 280 0 280 0 0 280 0 280 270 0 270 0 0 -280z" fill="#ffffff"/>
</g>
</svg>