<svg xmlns="http://www.w3.org/2000/svg" version="1.0" width="512.000000pt" height="512.000000pt" viewBox="0 0 512.000000 512.000000" preserveAspectRatio="xMidYMid meet">

<g transform="translate(0.000000,512.000000) scale(0.100000,-0.100000)" fill="#ffffff" stroke="none">
<path d="M2586 4509 c-242 -23 -477 -89 -701 -199 -234 -114 -410 -243 -590 -432 l-96 -101 -32 15 c-18 9 -133 95 -257 192 -198 155 -229 176 -262 176 -28 0 -42 -6 -58 -27 -21 -27 -21 -32 -18 -452 l3 -426 32 -68 32 -68 -23 -10 c-43 -20 -46 -42 -46 -384 l0 -325 -49 0 c-111 0 -111 -2 -111 -353 0 -341 4 -362 84 -443 74 -73 115 -84 321 -84 l162 0 45 -78 c105 -179 278 -383 443 -521 792 -660 1938 -631 2697 69 275 254 491 617 582 975 59 238 80 494 57 715 -90 860 -699 1567 -1530 1774 -212 53 -479 75 -685 55z m339 -160 c384 -33 746 -179 1040 -419 102 -83 259 -251 337 -361 176 -245 302 -577 338 -884 11 -100 13 -315 4 -364 l-6 -31 -954 0 -954 0 0 30 c0 19 -9 40 -25 55 -20 21 -34 25 -80 25 l-55 0 0 335 0 336 -25 24 c-13 14 -31 25 -40 25 -14 0 -14 4 4 28 10 15 29 57 41 92 61 181 -30 389 -207 477 l-58 28 -443 5 -443 5 88 86 c327 319 776 502 1268 517 28 1 104 -3 170 -9z m-1999 -582 c61 -47 135 -98 164 -113 113 -57 115 -57 650 -61 l495 -4 48 -27 c59 -32 103 -92 118 -161 22 -102 -35 -211 -136 -257 l-50 -24 -645 0 c-428 0 -658 4 -684 11 -21 6 -58 28 -81 50 -72 66 -75 86 -75 437 l0 304 43 -34 c23 -19 92 -73 153 -121z m104 -962 l0 -155 80 0 80 0 0 155 0 155 150 0 150 0 0 -155 0 -155 80 0 80 0 0 155 0 155 150 0 150 0 0 -155 0 -155 80 0 80 0 0 155 0 155 150 0 150 0 0 -280 0 -280 -840 0 -840 0 0 280 0 280 150 0 150 0 0 -155z m1540 -845 l0 -280 -951 0 c-1054 0 -1001 -3 -1033 65 -13 27 -16 74 -16 264 l0 231 1000 0 1000 0 0 -280z m520 0 l0 -170 -180 0 -180 0 0 170 0 170 180 0 180 0 0 -170z m1513 103 c-8 -38 -30 -113 -47 -168 l-32 -100 -634 0 -635 0 -3 168 -2 167 684 0 684 0 -15 -67z m-163 -441 c0 -4 -24 -49 -54 -100 -227 -384 -595 -680 -1021 -821 -609 -202 -1268 -84 -1770 317 -140 112 -303 293 -399 445 l-37 57 750 0 c528 0 757 3 774 11 26 12 47 47 47 79 0 20 14 20 855 20 470 0 855 -4 855 -8z" fill="#ffffff"/>
</g>
</svg>